<?xml version="1.0" encoding="UTF-8"?>
<svg xmlns="http://www.w3.org/2000/svg" xmlns:xlink="http://www.w3.org/1999/xlink" width="36px" height="26px" viewBox="0 0 36 26" version="1.1">
<g id="surface1">
<path style=" stroke:none;fill-rule:nonzero;fill:rgb(100%,75.686276%,2.745098%);fill-opacity:1;" d="M 12.855469 0.519531 C 16.929688 0.519531 21.003906 0.519531 25.199219 0.519531 C 25.199219 1.207031 25.199219 1.894531 25.199219 2.601562 C 25.878906 2.601562 26.558594 2.601562 27.257812 2.601562 C 27.257812 3.285156 27.257812 3.972656 27.257812 4.679688 C 27.9375 4.679688 28.613281 4.679688 29.3125 4.679688 C 29.3125 5.367188 29.3125 6.054688 29.3125 6.761719 C 29.992188 6.761719 30.671875 6.761719 31.371094 6.761719 C 31.371094 8.820312 31.371094 10.878906 31.371094 13 C 32.050781 13 32.730469 13 33.429688 13 C 33.429688 13.6875 33.429688 14.371094 33.429688 15.078125 C 34.109375 15.078125 34.785156 15.078125 35.484375 15.078125 C 35.484375 15.765625 35.484375 16.453125 35.484375 17.160156 C 34.808594 17.160156 34.128906 17.160156 33.429688 17.160156 C 33.429688 18.53125 33.429688 19.90625 33.429688 21.320312 C 32.75 21.320312 32.070312 21.320312 31.371094 21.320312 C 31.371094 22.007812 31.371094 22.691406 31.371094 23.398438 C 27.976562 23.398438 24.582031 23.398438 21.085938 23.398438 C 21.085938 24.085938 21.085938 24.773438 21.085938 25.480469 C 17.691406 25.480469 14.296875 25.480469 10.800781 25.480469 C 10.800781 24.792969 10.800781 24.105469 10.800781 23.398438 C 8.085938 23.398438 5.371094 23.398438 2.570312 23.398438 C 2.570312 22.714844 2.570312 22.027344 2.570312 21.320312 C 1.890625 21.320312 1.214844 21.320312 0.515625 21.320312 C 0.515625 19.261719 0.515625 17.203125 0.515625 15.078125 C 1.191406 15.078125 1.871094 15.078125 2.570312 15.078125 C 2.570312 13.019531 2.570312 10.960938 2.570312 8.839844 C 3.25 8.839844 3.929688 8.839844 4.628906 8.839844 C 4.628906 8.152344 4.628906 7.46875 4.628906 6.761719 C 5.308594 6.761719 5.984375 6.761719 6.6875 6.761719 C 6.6875 6.074219 6.6875 5.386719 6.6875 4.679688 C 7.363281 4.679688 8.042969 4.679688 8.742188 4.679688 C 8.742188 3.992188 8.742188 3.308594 8.742188 2.601562 C 10.101562 2.601562 11.457031 2.601562 12.855469 2.601562 C 12.855469 1.914062 12.855469 1.226562 12.855469 0.519531 Z M 21.085938 4.679688 C 21.085938 5.367188 21.085938 6.054688 21.085938 6.761719 C 21.765625 6.761719 22.445312 6.761719 23.144531 6.761719 C 23.144531 6.074219 23.144531 5.386719 23.144531 4.679688 C 22.464844 4.679688 21.785156 4.679688 21.085938 4.679688 Z M 27.257812 10.921875 C 27.257812 11.605469 27.257812 12.292969 27.257812 13 C 27.9375 13 28.613281 13 29.3125 13 C 29.3125 12.3125 29.3125 11.628906 29.3125 10.921875 C 28.636719 10.921875 27.957031 10.921875 27.257812 10.921875 Z M 27.257812 10.921875 "/>
<path style=" stroke:none;fill-rule:nonzero;fill:rgb(95.686275%,26.274511%,21.176471%);fill-opacity:1;" d="M 29.3125 6.761719 C 29.992188 6.761719 30.671875 6.761719 31.371094 6.761719 C 31.371094 8.820312 31.371094 10.878906 31.371094 13 C 32.050781 13 32.730469 13 33.429688 13 C 33.429688 13.6875 33.429688 14.371094 33.429688 15.078125 C 34.109375 15.078125 34.785156 15.078125 35.484375 15.078125 C 35.484375 15.765625 35.484375 16.453125 35.484375 17.160156 C 34.808594 17.160156 34.128906 17.160156 33.429688 17.160156 C 33.429688 18.53125 33.429688 19.90625 33.429688 21.320312 C 32.75 21.320312 32.070312 21.320312 31.371094 21.320312 C 31.371094 22.007812 31.371094 22.691406 31.371094 23.398438 C 27.976562 23.398438 24.582031 23.398438 21.085938 23.398438 C 21.085938 24.085938 21.085938 24.773438 21.085938 25.480469 C 17.691406 25.480469 14.296875 25.480469 10.800781 25.480469 C 10.800781 24.792969 10.800781 24.105469 10.800781 23.398438 C 8.085938 23.398438 5.371094 23.398438 2.570312 23.398438 C 2.570312 22.714844 2.570312 22.027344 2.570312 21.320312 C 4.609375 21.320312 6.644531 21.320312 8.742188 21.320312 C 8.742188 20.632812 8.742188 19.945312 8.742188 19.238281 C 9.421875 19.238281 10.101562 19.238281 10.800781 19.238281 C 10.800781 18.554688 10.800781 17.867188 10.800781 17.160156 C 11.480469 17.160156 12.15625 17.160156 12.855469 17.160156 C 12.855469 16.472656 12.855469 15.789062 12.855469 15.078125 C 13.535156 15.078125 14.214844 15.078125 14.914062 15.078125 C 14.914062 15.765625 14.914062 16.453125 14.914062 17.160156 C 16.273438 17.160156 17.628906 17.160156 19.027344 17.160156 C 19.027344 16.472656 19.027344 15.789062 19.027344 15.078125 C 19.707031 15.078125 20.386719 15.078125 21.085938 15.078125 C 21.085938 14.394531 21.085938 13.707031 21.085938 13 C 23.800781 13 26.515625 13 29.3125 13 C 29.3125 10.941406 29.3125 8.882812 29.3125 6.761719 Z M 29.3125 6.761719 "/>
<path style=" stroke:none;fill-rule:nonzero;fill:rgb(100%,59.607846%,0%);fill-opacity:1;" d="M 12.855469 15.078125 C 13.535156 15.078125 14.214844 15.078125 14.914062 15.078125 C 14.914062 15.765625 14.914062 16.453125 14.914062 17.160156 C 16.273438 17.160156 17.628906 17.160156 19.027344 17.160156 C 19.027344 18.53125 19.027344 19.90625 19.027344 21.320312 C 23.101562 21.320312 27.175781 21.320312 31.371094 21.320312 C 31.371094 22.007812 31.371094 22.691406 31.371094 23.398438 C 27.976562 23.398438 24.582031 23.398438 21.085938 23.398438 C 21.085938 24.085938 21.085938 24.773438 21.085938 25.480469 C 17.691406 25.480469 14.296875 25.480469 10.800781 25.480469 C 10.800781 24.792969 10.800781 24.105469 10.800781 23.398438 C 8.085938 23.398438 5.371094 23.398438 2.570312 23.398438 C 2.570312 22.714844 2.570312 22.027344 2.570312 21.320312 C 4.609375 21.320312 6.644531 21.320312 8.742188 21.320312 C 8.742188 20.632812 8.742188 19.945312 8.742188 19.238281 C 9.421875 19.238281 10.101562 19.238281 10.800781 19.238281 C 10.800781 18.554688 10.800781 17.867188 10.800781 17.160156 C 11.480469 17.160156 12.15625 17.160156 12.855469 17.160156 C 12.855469 16.472656 12.855469 15.789062 12.855469 15.078125 Z M 12.855469 15.078125 "/>
<path style=" stroke:none;fill-rule:nonzero;fill:rgb(93.333334%,93.333334%,93.333334%);fill-opacity:1;" d="M 21.085938 2.601562 C 23.121094 2.601562 25.160156 2.601562 27.257812 2.601562 C 27.257812 3.285156 27.257812 3.972656 27.257812 4.679688 C 27.9375 4.679688 28.613281 4.679688 29.3125 4.679688 C 29.3125 6.738281 29.3125 8.796875 29.3125 10.921875 C 28.636719 10.921875 27.957031 10.921875 27.257812 10.921875 C 27.257812 11.605469 27.257812 12.292969 27.257812 13 C 25.21875 13 23.183594 13 21.085938 13 C 21.085938 12.3125 21.085938 11.628906 21.085938 10.921875 C 20.40625 10.921875 19.726562 10.921875 19.027344 10.921875 C 19.027344 8.859375 19.027344 6.800781 19.027344 4.679688 C 19.707031 4.679688 20.386719 4.679688 21.085938 4.679688 C 21.085938 3.992188 21.085938 3.308594 21.085938 2.601562 Z M 21.085938 4.679688 C 21.085938 5.367188 21.085938 6.054688 21.085938 6.761719 C 21.765625 6.761719 22.445312 6.761719 23.144531 6.761719 C 23.144531 6.074219 23.144531 5.386719 23.144531 4.679688 C 22.464844 4.679688 21.785156 4.679688 21.085938 4.679688 Z M 21.085938 4.679688 "/>
<path style=" stroke:none;fill-rule:nonzero;fill:rgb(100%,100%,100%);fill-opacity:1;" d="M 0.515625 15.078125 C 4.585938 15.078125 8.660156 15.078125 12.855469 15.078125 C 12.855469 15.765625 12.855469 16.453125 12.855469 17.160156 C 12.179688 17.160156 11.5 17.160156 10.800781 17.160156 C 10.800781 17.847656 10.800781 18.53125 10.800781 19.238281 C 10.121094 19.238281 9.441406 19.238281 8.742188 19.238281 C 8.742188 19.925781 8.742188 20.613281 8.742188 21.320312 C 6.027344 21.320312 3.3125 21.320312 0.515625 21.320312 C 0.515625 19.261719 0.515625 17.203125 0.515625 15.078125 Z M 0.515625 15.078125 "/>
<path style=" stroke:none;fill-rule:nonzero;fill:rgb(0%,0%,0%);fill-opacity:1;" d="M 29.3125 6.761719 C 29.992188 6.761719 30.671875 6.761719 31.371094 6.761719 C 31.371094 8.820312 31.371094 10.878906 31.371094 13 C 32.050781 13 32.730469 13 33.429688 13 C 33.429688 13.6875 33.429688 14.371094 33.429688 15.078125 C 29.355469 15.078125 25.28125 15.078125 21.085938 15.078125 C 21.085938 14.394531 21.085938 13.707031 21.085938 13 C 23.800781 13 26.515625 13 29.3125 13 C 29.3125 10.941406 29.3125 8.882812 29.3125 6.761719 Z M 29.3125 6.761719 "/>
<path style=" stroke:none;fill-rule:nonzero;fill:rgb(0%,0%,0%);fill-opacity:1;" d="M 21.085938 17.160156 C 25.160156 17.160156 29.230469 17.160156 33.429688 17.160156 C 33.429688 18.53125 33.429688 19.90625 33.429688 21.320312 C 32.75 21.320312 32.070312 21.320312 31.371094 21.320312 C 31.371094 20.632812 31.371094 19.945312 31.371094 19.238281 C 27.976562 19.238281 24.582031 19.238281 21.085938 19.238281 C 21.085938 18.554688 21.085938 17.867188 21.085938 17.160156 Z M 21.085938 17.160156 "/>
<path style=" stroke:none;fill-rule:nonzero;fill:rgb(0%,0%,0%);fill-opacity:1;" d="M 2.570312 8.839844 C 3.25 8.839844 3.929688 8.839844 4.628906 8.839844 C 4.628906 10.210938 4.628906 11.585938 4.628906 13 C 7.34375 13 10.058594 13 12.855469 13 C 12.855469 13.6875 12.855469 14.371094 12.855469 15.078125 C 9.460938 15.078125 6.070312 15.078125 2.570312 15.078125 C 2.570312 13.019531 2.570312 10.960938 2.570312 8.839844 Z M 2.570312 8.839844 "/>
<path style=" stroke:none;fill-rule:nonzero;fill:rgb(0%,0%,0%);fill-opacity:1;" d="M 12.855469 0.519531 C 16.929688 0.519531 21.003906 0.519531 25.199219 0.519531 C 25.199219 1.207031 25.199219 1.894531 25.199219 2.601562 C 23.84375 2.601562 22.484375 2.601562 21.085938 2.601562 C 21.085938 3.285156 21.085938 3.972656 21.085938 4.679688 C 20.40625 4.679688 19.726562 4.679688 19.027344 4.679688 C 19.027344 3.992188 19.027344 3.308594 19.027344 2.601562 C 16.992188 2.601562 14.957031 2.601562 12.855469 2.601562 C 12.855469 1.914062 12.855469 1.226562 12.855469 0.519531 Z M 12.855469 0.519531 "/>
<path style=" stroke:none;fill-rule:nonzero;fill:rgb(0%,0%,0%);fill-opacity:1;" d="M 10.800781 23.398438 C 14.195312 23.398438 17.589844 23.398438 21.085938 23.398438 C 21.085938 24.085938 21.085938 24.773438 21.085938 25.480469 C 17.691406 25.480469 14.296875 25.480469 10.800781 25.480469 C 10.800781 24.792969 10.800781 24.105469 10.800781 23.398438 Z M 10.800781 23.398438 "/>
<path style=" stroke:none;fill-rule:nonzero;fill:rgb(0%,0%,0%);fill-opacity:1;" d="M 21.085938 21.320312 C 24.480469 21.320312 27.875 21.320312 31.371094 21.320312 C 31.371094 22.007812 31.371094 22.691406 31.371094 23.398438 C 27.976562 23.398438 24.582031 23.398438 21.085938 23.398438 C 21.085938 22.714844 21.085938 22.027344 21.085938 21.320312 Z M 21.085938 21.320312 "/>
<path style=" stroke:none;fill-rule:nonzero;fill:rgb(95.686275%,26.274511%,21.176471%);fill-opacity:1;" d="M 21.085938 19.238281 C 24.480469 19.238281 27.875 19.238281 31.371094 19.238281 C 31.371094 19.925781 31.371094 20.613281 31.371094 21.320312 C 27.976562 21.320312 24.582031 21.320312 21.085938 21.320312 C 21.085938 20.632812 21.085938 19.945312 21.085938 19.238281 Z M 21.085938 19.238281 "/>
<path style=" stroke:none;fill-rule:nonzero;fill:rgb(0%,0%,0%);fill-opacity:1;" d="M 8.742188 19.238281 C 9.421875 19.238281 10.101562 19.238281 10.800781 19.238281 C 10.800781 20.613281 10.800781 21.984375 10.800781 23.398438 C 8.085938 23.398438 5.371094 23.398438 2.570312 23.398438 C 2.570312 22.714844 2.570312 22.027344 2.570312 21.320312 C 4.609375 21.320312 6.644531 21.320312 8.742188 21.320312 C 8.742188 20.632812 8.742188 19.945312 8.742188 19.238281 Z M 8.742188 19.238281 "/>
<path style=" stroke:none;fill-rule:nonzero;fill:rgb(100%,92.156863%,23.137255%);fill-opacity:1;" d="M 8.742188 2.601562 C 10.101562 2.601562 11.457031 2.601562 12.855469 2.601562 C 12.855469 3.972656 12.855469 5.34375 12.855469 6.761719 C 10.820312 6.761719 8.785156 6.761719 6.6875 6.761719 C 6.6875 6.074219 6.6875 5.386719 6.6875 4.679688 C 7.363281 4.679688 8.042969 4.679688 8.742188 4.679688 C 8.742188 3.992188 8.742188 3.308594 8.742188 2.601562 Z M 8.742188 2.601562 "/>
<path style=" stroke:none;fill-rule:nonzero;fill:rgb(0%,0%,0%);fill-opacity:1;" d="M 0.515625 15.078125 C 1.191406 15.078125 1.871094 15.078125 2.570312 15.078125 C 2.570312 17.140625 2.570312 19.199219 2.570312 21.320312 C 1.890625 21.320312 1.214844 21.320312 0.515625 21.320312 C 0.515625 19.261719 0.515625 17.203125 0.515625 15.078125 Z M 0.515625 15.078125 "/>
<path style=" stroke:none;fill-rule:nonzero;fill:rgb(0%,0%,0%);fill-opacity:1;" d="M 16.972656 4.679688 C 17.648438 4.679688 18.328125 4.679688 19.027344 4.679688 C 19.027344 6.738281 19.027344 8.796875 19.027344 10.921875 C 18.351562 10.921875 17.671875 10.921875 16.972656 10.921875 C 16.972656 8.859375 16.972656 6.800781 16.972656 4.679688 Z M 16.972656 4.679688 "/>
<path style=" stroke:none;fill-rule:nonzero;fill:rgb(100%,92.156863%,23.137255%);fill-opacity:1;" d="M 12.855469 2.601562 C 14.894531 2.601562 16.929688 2.601562 19.027344 2.601562 C 19.027344 3.285156 19.027344 3.972656 19.027344 4.679688 C 16.992188 4.679688 14.957031 4.679688 12.855469 4.679688 C 12.855469 3.992188 12.855469 3.308594 12.855469 2.601562 Z M 12.855469 2.601562 "/>
<path style=" stroke:none;fill-rule:nonzero;fill:rgb(100%,100%,100%);fill-opacity:1;" d="M 27.257812 6.761719 C 27.9375 6.761719 28.613281 6.761719 29.3125 6.761719 C 29.3125 8.132812 29.3125 9.503906 29.3125 10.921875 C 28.636719 10.921875 27.957031 10.921875 27.257812 10.921875 C 27.257812 9.546875 27.257812 8.175781 27.257812 6.761719 Z M 27.257812 6.761719 "/>
<path style=" stroke:none;fill-rule:nonzero;fill:rgb(0%,0%,0%);fill-opacity:1;" d="M 25.199219 6.761719 C 25.878906 6.761719 26.558594 6.761719 27.257812 6.761719 C 27.257812 8.132812 27.257812 9.503906 27.257812 10.921875 C 26.578125 10.921875 25.898438 10.921875 25.199219 10.921875 C 25.199219 9.546875 25.199219 8.175781 25.199219 6.761719 Z M 25.199219 6.761719 "/>
<path style=" stroke:none;fill-rule:nonzero;fill:rgb(0%,0%,0%);fill-opacity:1;" d="M 8.742188 2.601562 C 10.101562 2.601562 11.457031 2.601562 12.855469 2.601562 C 12.855469 3.285156 12.855469 3.972656 12.855469 4.679688 C 11.5 4.679688 10.140625 4.679688 8.742188 4.679688 C 8.742188 3.992188 8.742188 3.308594 8.742188 2.601562 Z M 8.742188 2.601562 "/>
<path style=" stroke:none;fill-rule:nonzero;fill:rgb(0%,0%,0%);fill-opacity:1;" d="M 19.027344 19.238281 C 19.707031 19.238281 20.386719 19.238281 21.085938 19.238281 C 21.085938 19.925781 21.085938 20.613281 21.085938 21.320312 C 20.40625 21.320312 19.726562 21.320312 19.027344 21.320312 C 19.027344 20.632812 19.027344 19.945312 19.027344 19.238281 Z M 19.027344 19.238281 "/>
<path style=" stroke:none;fill-rule:nonzero;fill:rgb(100%,96.078432%,61.56863%);fill-opacity:1;" d="M 6.6875 19.238281 C 7.363281 19.238281 8.042969 19.238281 8.742188 19.238281 C 8.742188 19.925781 8.742188 20.613281 8.742188 21.320312 C 8.0625 21.320312 7.386719 21.320312 6.6875 21.320312 C 6.6875 20.632812 6.6875 19.945312 6.6875 19.238281 Z M 6.6875 19.238281 "/>
<path style=" stroke:none;fill-rule:nonzero;fill:rgb(95.686275%,26.274511%,21.176471%);fill-opacity:1;" d="M 19.027344 17.160156 C 19.707031 17.160156 20.386719 17.160156 21.085938 17.160156 C 21.085938 17.847656 21.085938 18.53125 21.085938 19.238281 C 20.40625 19.238281 19.726562 19.238281 19.027344 19.238281 C 19.027344 18.554688 19.027344 17.867188 19.027344 17.160156 Z M 19.027344 17.160156 "/>
<path style=" stroke:none;fill-rule:nonzero;fill:rgb(0%,0%,0%);fill-opacity:1;" d="M 16.972656 17.160156 C 17.648438 17.160156 18.328125 17.160156 19.027344 17.160156 C 19.027344 17.847656 19.027344 18.53125 19.027344 19.238281 C 18.351562 19.238281 17.671875 19.238281 16.972656 19.238281 C 16.972656 18.554688 16.972656 17.867188 16.972656 17.160156 Z M 16.972656 17.160156 "/>
<path style=" stroke:none;fill-rule:nonzero;fill:rgb(0%,0%,0%);fill-opacity:1;" d="M 10.800781 17.160156 C 11.480469 17.160156 12.15625 17.160156 12.855469 17.160156 C 12.855469 17.847656 12.855469 18.53125 12.855469 19.238281 C 12.179688 19.238281 11.5 19.238281 10.800781 19.238281 C 10.800781 18.554688 10.800781 17.867188 10.800781 17.160156 Z M 10.800781 17.160156 "/>
<path style=" stroke:none;fill-rule:nonzero;fill:rgb(0%,0%,0%);fill-opacity:1;" d="M 33.429688 15.078125 C 34.109375 15.078125 34.785156 15.078125 35.484375 15.078125 C 35.484375 15.765625 35.484375 16.453125 35.484375 17.160156 C 34.808594 17.160156 34.128906 17.160156 33.429688 17.160156 C 33.429688 16.472656 33.429688 15.789062 33.429688 15.078125 Z M 33.429688 15.078125 "/>
<path style=" stroke:none;fill-rule:nonzero;fill:rgb(0%,0%,0%);fill-opacity:1;" d="M 19.027344 15.078125 C 19.707031 15.078125 20.386719 15.078125 21.085938 15.078125 C 21.085938 15.765625 21.085938 16.453125 21.085938 17.160156 C 20.40625 17.160156 19.726562 17.160156 19.027344 17.160156 C 19.027344 16.472656 19.027344 15.789062 19.027344 15.078125 Z M 19.027344 15.078125 "/>
<path style=" stroke:none;fill-rule:nonzero;fill:rgb(0%,0%,0%);fill-opacity:1;" d="M 12.855469 15.078125 C 13.535156 15.078125 14.214844 15.078125 14.914062 15.078125 C 14.914062 15.765625 14.914062 16.453125 14.914062 17.160156 C 14.234375 17.160156 13.554688 17.160156 12.855469 17.160156 C 12.855469 16.472656 12.855469 15.789062 12.855469 15.078125 Z M 12.855469 15.078125 "/>
<path style=" stroke:none;fill-rule:nonzero;fill:rgb(100%,96.078432%,61.56863%);fill-opacity:1;" d="M 10.800781 15.078125 C 11.480469 15.078125 12.15625 15.078125 12.855469 15.078125 C 12.855469 15.765625 12.855469 16.453125 12.855469 17.160156 C 12.179688 17.160156 11.5 17.160156 10.800781 17.160156 C 10.800781 16.472656 10.800781 15.789062 10.800781 15.078125 Z M 10.800781 15.078125 "/>
<path style=" stroke:none;fill-rule:nonzero;fill:rgb(100%,96.078432%,61.56863%);fill-opacity:1;" d="M 2.570312 15.078125 C 3.25 15.078125 3.929688 15.078125 4.628906 15.078125 C 4.628906 15.765625 4.628906 16.453125 4.628906 17.160156 C 3.949219 17.160156 3.269531 17.160156 2.570312 17.160156 C 2.570312 16.472656 2.570312 15.789062 2.570312 15.078125 Z M 2.570312 15.078125 "/>
<path style=" stroke:none;fill-rule:nonzero;fill:rgb(61.960787%,61.960787%,61.960787%);fill-opacity:1;" d="M 21.085938 10.921875 C 21.765625 10.921875 22.445312 10.921875 23.144531 10.921875 C 23.144531 11.605469 23.144531 12.292969 23.144531 13 C 22.464844 13 21.785156 13 21.085938 13 C 21.085938 12.3125 21.085938 11.628906 21.085938 10.921875 Z M 21.085938 10.921875 "/>
<path style=" stroke:none;fill-rule:nonzero;fill:rgb(0%,0%,0%);fill-opacity:1;" d="M 19.027344 10.921875 C 19.707031 10.921875 20.386719 10.921875 21.085938 10.921875 C 21.085938 11.605469 21.085938 12.292969 21.085938 13 C 20.40625 13 19.726562 13 19.027344 13 C 19.027344 12.3125 19.027344 11.628906 19.027344 10.921875 Z M 19.027344 10.921875 "/>
<path style=" stroke:none;fill-rule:nonzero;fill:rgb(100%,92.156863%,23.137255%);fill-opacity:1;" d="M 6.6875 6.761719 C 7.363281 6.761719 8.042969 6.761719 8.742188 6.761719 C 8.742188 7.445312 8.742188 8.132812 8.742188 8.839844 C 8.0625 8.839844 7.386719 8.839844 6.6875 8.839844 C 6.6875 8.152344 6.6875 7.46875 6.6875 6.761719 Z M 6.6875 6.761719 "/>
<path style=" stroke:none;fill-rule:nonzero;fill:rgb(0%,0%,0%);fill-opacity:1;" d="M 4.628906 6.761719 C 5.308594 6.761719 5.984375 6.761719 6.6875 6.761719 C 6.6875 7.445312 6.6875 8.132812 6.6875 8.839844 C 6.007812 8.839844 5.328125 8.839844 4.628906 8.839844 C 4.628906 8.152344 4.628906 7.46875 4.628906 6.761719 Z M 4.628906 6.761719 "/>
<path style=" stroke:none;fill-rule:nonzero;fill:rgb(0%,0%,0%);fill-opacity:1;" d="M 27.257812 4.679688 C 27.9375 4.679688 28.613281 4.679688 29.3125 4.679688 C 29.3125 5.367188 29.3125 6.054688 29.3125 6.761719 C 28.636719 6.761719 27.957031 6.761719 27.257812 6.761719 C 27.257812 6.074219 27.257812 5.386719 27.257812 4.679688 Z M 27.257812 4.679688 "/>
<path style=" stroke:none;fill-rule:nonzero;fill:rgb(100%,100%,100%);fill-opacity:1;" d="M 19.027344 4.679688 C 19.707031 4.679688 20.386719 4.679688 21.085938 4.679688 C 21.085938 5.367188 21.085938 6.054688 21.085938 6.761719 C 20.40625 6.761719 19.726562 6.761719 19.027344 6.761719 C 19.027344 6.074219 19.027344 5.386719 19.027344 4.679688 Z M 19.027344 4.679688 "/>
<path style=" stroke:none;fill-rule:nonzero;fill:rgb(0%,0%,0%);fill-opacity:1;" d="M 6.6875 4.679688 C 7.363281 4.679688 8.042969 4.679688 8.742188 4.679688 C 8.742188 5.367188 8.742188 6.054688 8.742188 6.761719 C 8.0625 6.761719 7.386719 6.761719 6.6875 6.761719 C 6.6875 6.074219 6.6875 5.386719 6.6875 4.679688 Z M 6.6875 4.679688 "/>
<path style=" stroke:none;fill-rule:nonzero;fill:rgb(0%,0%,0%);fill-opacity:1;" d="M 25.199219 2.601562 C 25.878906 2.601562 26.558594 2.601562 27.257812 2.601562 C 27.257812 3.285156 27.257812 3.972656 27.257812 4.679688 C 26.578125 4.679688 25.898438 4.679688 25.199219 4.679688 C 25.199219 3.992188 25.199219 3.308594 25.199219 2.601562 Z M 25.199219 2.601562 "/>
</g>
</svg>
